<?xml version="1.0" encoding="iso-8859-1"?>
<!-- Generator: Adobe Illustrator 19.0.0, SVG Export Plug-In . SVG Version: 6.00 Build 0)  -->
<svg xmlns="http://www.w3.org/2000/svg" xmlns:xlink="http://www.w3.org/1999/xlink" version="1.1" id="Layer_1" x="0px" y="0px" viewBox="0 0 512 512" style="enable-background:new 0 0 512 512;" xml:space="preserve" width="512px" height="512px">
<g>
	<g>
		<g>
			<path d="M501.333,64H74.667C68.771,64,64,68.771,64,74.667V128H10.667C4.771,128,0,132.771,0,138.667v266.667     C0,428.865,19.146,448,42.667,448h426.667C492.854,448,512,428.865,512,405.333V74.667C512,68.771,507.229,64,501.333,64z      M64,405.333c0,11.76-9.563,21.333-21.333,21.333c-11.771,0-21.333-9.573-21.333-21.333v-256H64V405.333z M490.667,405.333     c0,11.76-9.563,21.333-21.333,21.333H79.604c3.646-6.281,5.729-13.573,5.729-21.333v-320h405.333V405.333z" fill="#006064"/>
			<path d="M117.333,234.667c5.896,0,10.667-4.771,10.667-10.667v-74.667h10.667c5.875,0,10.667,4.781,10.667,10.667v64     c0,5.896,4.771,10.667,10.667,10.667s10.667-4.771,10.667-10.667v-64c0-17.646-14.354-32-32-32h-21.333     c-5.896,0-10.667,4.771-10.667,10.667V224C106.667,229.896,111.438,234.667,117.333,234.667z" fill="#006064"/>
			<path d="M202.667,234.667h42.667c5.896,0,10.667-4.771,10.667-10.667s-4.771-10.667-10.667-10.667h-32V192h21.333     c5.896,0,10.667-4.771,10.667-10.667c0-5.896-4.771-10.667-10.667-10.667h-21.333v-21.333h32c5.896,0,10.667-4.771,10.667-10.667     c0-5.896-4.771-10.667-10.667-10.667h-42.667c-5.896,0-10.667,4.771-10.667,10.667V224     C192,229.896,196.771,234.667,202.667,234.667z" fill="#006064"/>
			<path d="M300.458,229.917c1.979,2.969,5.313,4.75,8.875,4.75s6.896-1.781,8.875-4.75l12.458-18.688l12.458,18.688     c1.979,2.969,5.313,4.75,8.875,4.75s6.896-1.781,8.875-4.75l21.333-32c1.167-1.75,1.792-3.813,1.792-5.917v-53.333     c0-5.896-4.771-10.667-10.667-10.667c-5.896,0-10.667,4.771-10.667,10.667v50.104l-10.667,16l-10.667-16v-50.104     c0-5.896-4.771-10.667-10.667-10.667c-5.896,0-10.667,4.771-10.667,10.667v50.104l-10.667,16l-10.667-16v-50.104     c0-5.896-4.771-10.667-10.667-10.667s-10.667,4.771-10.667,10.667V192c0,2.104,0.625,4.167,1.792,5.917L300.458,229.917z" fill="#006064"/>
			<path d="M437.333,213.333H416c-5.896,0-10.667,4.771-10.667,10.667s4.771,10.667,10.667,10.667h21.333c17.646,0,32-14.354,32-32     c0-17.646-14.354-32-32-32c-5.875,0-10.667-4.781-10.667-10.667s4.792-10.667,10.667-10.667h21.333     c5.896,0,10.667-4.771,10.667-10.667c0-5.896-4.771-10.667-10.667-10.667h-21.333c-17.646,0-32,14.354-32,32s14.354,32,32,32     c5.875,0,10.667,4.781,10.667,10.667C448,208.552,443.208,213.333,437.333,213.333z" fill="#006064"/>
			<path d="M117.333,384h149.333c5.896,0,10.667-4.771,10.667-10.667V266.667c0-5.896-4.771-10.667-10.667-10.667H117.333     c-5.896,0-10.667,4.771-10.667,10.667v106.667C106.667,379.229,111.438,384,117.333,384z M128,277.333h128v85.333H128V277.333z" fill="#006064"/>
			<path d="M458.667,277.333H309.333c-5.896,0-10.667,4.771-10.667,10.667s4.771,10.667,10.667,10.667h149.333     c5.896,0,10.667-4.771,10.667-10.667S464.563,277.333,458.667,277.333z" fill="#006064"/>
			<path d="M458.667,320H309.333c-5.896,0-10.667,4.771-10.667,10.667c0,5.896,4.771,10.667,10.667,10.667h149.333     c5.896,0,10.667-4.771,10.667-10.667C469.333,324.771,464.563,320,458.667,320z" fill="#006064"/>
			<path d="M458.667,362.667H309.333c-5.896,0-10.667,4.771-10.667,10.667c0,5.896,4.771,10.667,10.667,10.667h149.333     c5.896,0,10.667-4.771,10.667-10.667C469.333,367.438,464.563,362.667,458.667,362.667z" fill="#006064"/>
		</g>
	</g>
</g>
<g>
</g>
<g>
</g>
<g>
</g>
<g>
</g>
<g>
</g>
<g>
</g>
<g>
</g>
<g>
</g>
<g>
</g>
<g>
</g>
<g>
</g>
<g>
</g>
<g>
</g>
<g>
</g>
<g>
</g>
</svg>
